<svg xmlns="http://www.w3.org/2000/svg" xmlns:xlink="http://www.w3.org/1999/xlink" width="100" zoomAndPan="magnify" viewBox="0 0 75 74.999997" height="100" preserveAspectRatio="xMidYMid meet" version="1.0"><defs><clipPath id="b16f78b409"><path d="M 9.761719 6 L 65 6 L 65 58 L 9.761719 58 Z M 9.761719 6 " clip-rule="nonzero"/></clipPath><clipPath id="3946b9390c"><path d="M 12 39 L 46 39 L 46 67.546875 L 12 67.546875 Z M 12 39 " clip-rule="nonzero"/></clipPath></defs><rect x="-7.5" width="90" fill="#ffffff" y="-7.5" height="89.999996" fill-opacity="1"/><rect x="-7.5" width="90" fill="#000000" y="-7.5" height="89.999996" fill-opacity="1"/><g clip-path="url(#b16f78b409)"><path fill="#ed1c24" d="M 60.921875 30.957031 L 19.53125 7.050781 C 15.191406 4.542969 9.765625 7.675781 9.765625 12.6875 L 9.765625 56.238281 L 17.226562 48.773438 C 18.957031 47.042969 18.074219 45.046875 17.566406 42.351562 C 17.042969 39.605469 18.429688 38.1875 20.820312 37.035156 L 19.769531 35.988281 C 19.304688 36.578125 18.964844 37 18.011719 36.046875 C 16.691406 34.726562 17.816406 34.613281 18.578125 33.851562 C 19.34375 33.089844 19.390625 31.902344 20.773438 33.285156 C 21.796875 34.308594 21.335938 34.605469 20.722656 35.050781 L 22.136719 36.464844 C 22.949219 36.136719 23.839844 35.820312 24.785156 35.480469 L 23.574219 34.269531 C 23.109375 34.863281 22.773438 35.28125 21.820312 34.328125 C 20.5 33.007812 21.625 32.898438 22.386719 32.136719 C 23.148438 31.371094 23.195312 30.183594 24.578125 31.566406 C 25.601562 32.589844 25.144531 32.890625 24.53125 33.335938 L 26.171875 34.976562 C 27.015625 34.664062 27.890625 34.328125 28.777344 33.949219 L 27.886719 33.058594 C 27.421875 33.652344 27.085938 34.070312 26.132812 33.117188 C 24.8125 31.796875 25.9375 31.6875 26.699219 30.921875 C 27.460938 30.160156 27.507812 28.972656 28.890625 30.355469 C 29.914062 31.378906 29.457031 31.679688 28.84375 32.125 L 30.082031 33.363281 C 30.929688 32.960938 31.789062 32.515625 32.640625 32.007812 L 31.601562 30.96875 C 31.136719 31.5625 30.796875 31.980469 29.84375 31.027344 C 28.523438 29.707031 29.648438 29.597656 30.414062 28.832031 C 31.175781 28.070312 31.222656 26.882812 32.605469 28.265625 C 33.628906 29.289062 33.171875 29.585938 32.554688 30.035156 L 33.796875 31.273438 C 34.5625 30.757812 35.320312 30.1875 36.058594 29.550781 L 35.09375 28.585938 C 34.625 29.175781 34.289062 29.597656 33.335938 28.640625 C 32.015625 27.324219 33.140625 27.210938 33.902344 26.449219 C 34.664062 25.6875 34.714844 24.5 36.09375 25.882812 C 37.121094 26.90625 36.660156 27.203125 36.046875 27.648438 L 37.046875 28.648438 C 37.832031 27.914062 38.535156 27.273438 39.171875 26.71875 L 38.429688 25.976562 C 37.960938 26.566406 37.625 26.988281 36.671875 26.035156 C 35.351562 24.714844 36.476562 24.601562 37.238281 23.839844 C 38 23.078125 38.046875 21.890625 39.429688 23.273438 C 40.453125 24.296875 39.996094 24.59375 39.382812 25.039062 L 40.191406 25.851562 C 47.175781 20.082031 43.628906 27.117188 45.351562 31.707031 C 46.433594 34.597656 47.933594 38.792969 45.015625 39.132812 C 43.019531 41.632812 36.777344 49.835938 34.222656 57.652344 L 60.921875 42.234375 C 65.261719 39.726562 65.261719 33.460938 60.921875 30.957031 " fill-opacity="1" fill-rule="nonzero"/></g><g clip-path="url(#3946b9390c)"><path fill="#bf1b2c" d="M 44.617188 39.160156 C 35.214844 39.160156 35.929688 55.402344 31.011719 52.804688 C 27.242188 50.816406 25.601562 52.441406 23.246094 54.796875 L 12.351562 65.695312 C 14.320312 67.175781 17.09375 67.546875 19.53125 66.140625 L 34.222656 57.652344 C 36.777344 49.835938 43.019531 41.632812 45.015625 39.132812 C 44.890625 39.148438 44.757812 39.160156 44.617188 39.160156 " fill-opacity="1" fill-rule="nonzero"/></g></svg>